<?xml version="1.0" encoding="utf-8"?>
<!-- Generator: Adobe Illustrator 18.0.0, SVG Export Plug-In . SVG Version: 6.00 Build 0)  -->
<!DOCTYPE svg PUBLIC "-//W3C//DTD SVG 1.1//EN" "http://www.w3.org/Graphics/SVG/1.1/DTD/svg11.dtd">
<svg version="1.1" id="Layer_1" xmlns="http://www.w3.org/2000/svg" xmlns:xlink="http://www.w3.org/1999/xlink" x="0px" y="0px"
	 viewBox="0 0 194.5 57.7" enable-background="new 0 0 194.5 57.7" xml:space="preserve">
<g>
	<g>
		<path fill="#FFFFFF" d="M14.4,57.2c-1.2,0-1.8-0.8-1.8-2.4c0-9.1-0.2-17.6-0.6-25.4c-1.3-0.2-2.5-0.4-3.6-0.4s-2.1,0.2-3,0.6
			c0,2.7,0.2,6.7,0.6,12.1c0.4,5.4,0.6,9.5,0.6,12.3c0,0.5-0.1,0.9-0.4,1.3c-0.3,0.4-0.7,0.6-1.1,0.6c-1.3,0-2.3-4.1-2.9-12.3
			C1.2,32.4,0.8,18.9,0.8,3c0-0.9,0.4-1.3,1.2-1.3c0.4,0,0.9,0.1,1.4,0.4C4,2.3,4.3,2.6,4.6,2.9C4.4,4.6,4.3,6.4,4.3,8.3l0.5,14.8
			l-0.1,2.7c0,0.7,0,1.3,0.1,1.9l7-0.5L11.6,3.5V1.6c1.8,0,2.9,0.8,3.3,2.5c0.2,0.8,0.2,2.8,0.2,6.1s0.2,10.2,0.7,20.7
			c0.5,10.6,0.7,18.5,0.7,23.7c0,0.6-0.2,1.2-0.6,1.8C15.5,56.9,15,57.2,14.4,57.2z"/>
		<path fill="#FFFFFF" d="M36.8,41.5l0.8,4.4c0,0.6,0.2,2,0.7,4.3c0.5,2.3,0.7,3.8,0.7,4.5v0.1c0,1.1-0.4,1.7-1.2,2
			c-1,0-1.8-0.2-2.4-0.5c-0.6-0.3-0.8-1-0.8-1.9c0-2-0.4-5-1.1-8.9l-7.1-1.1c-0.4,1.6-0.8,3.3-1,5.2c-0.2,1.9-0.5,3.3-0.7,4.1
			c-0.4,1.8-1.2,2.7-2.4,2.7c-0.6,0-1.1-0.2-1.6-0.5c-0.5-0.4-0.7-0.8-0.7-1.4l0.2-0.6c3.2-12.5,5.6-24.7,7.2-36.5
			c0-0.3,0.1-1.3,0.2-2.9c0.2-3.5,0.7-5.8,1.3-6.7h2.4c0.7,0,1.2,0.2,1.7,0.5c0.5,0.3,0.7,0.8,0.7,1.4c0,3.7,0.5,9.1,1.5,16.3
			C36.3,33.1,36.8,38.3,36.8,41.5z M33,42.9c-0.1-0.7-0.2-1.9-0.2-3.7c0-1.7-0.1-3.9-0.3-6.5c-0.2-2.6-0.5-5.6-0.9-9
			c-0.4-3.4-0.6-5.9-0.8-7.5c-2.2,12.1-3.6,20.6-4.2,25.5C27.5,42.3,29.6,42.7,33,42.9z"/>
		<path fill="#FFFFFF" d="M42.1,38.7l0-4.2v-1.7c0-7.1,0.4-12,1.1-14.8c0.8-3.4,2-5.8,3.5-7.1c2-1.8,4.6-2.7,7.7-2.7
			c0.8,0,1.3,0.2,1.7,0.5c0.4,0.4,0.5,0.8,0.5,1.3c0,0.5-0.1,0.9-0.4,1.3c-0.3,0.4-0.7,0.6-1.1,0.6h-3.4c-1,0-1.8,0.6-2.6,1.9
			c-0.7,1.3-1.2,2.8-1.5,4.6c-0.6,3.5-0.9,6.3-0.9,8.6v0.4l-0.3,13.9c0,2.9,0.2,5,0.5,6.1s0.6,2,1,2.7c0.3,0.7,0.7,1.3,1.2,1.7
			c1.1,1,2.5,1.5,4.1,1.5c0.6,0,1.1-0.2,1.5-0.6c0.6,0,1.1,0.1,1.5,0.4c0.4,0.3,0.7,0.7,0.7,1.2c0,1.9-1.3,2.8-4,2.8
			c-1.1,0-2.2-0.2-3.4-0.5c-1.2-0.3-2.1-0.7-2.7-1C43.7,53.5,42.1,47.9,42.1,38.7z"/>
		<path fill="#FFFFFF" d="M70.5,23.8l-0.1,4.3c0,2.1,0.8,5.9,2.5,11.6c1.7,5.6,3,9.4,4.1,11.2c0.1,0.2,0.5,0.6,0.9,1.3
			c0.5,0.7,0.8,1.2,1.1,1.7c0.2,0.5,0.3,1,0.3,1.5c0,0.5-0.2,1-0.6,1.4c-0.4,0.4-0.9,0.5-1.4,0.5c-1.1,0-2.3-1.2-3.5-3.6
			c-1.2-2.4-2.3-5.3-3.2-8.7c-1.6-5.9-2.8-11-3.6-15.4c-1.7,3.4-2.6,7.6-2.6,12.5v13.3c0,1.1-0.5,1.7-1.5,1.7
			c-0.7,0-1.3-0.2-1.7-0.6c-0.4-0.4-0.7-1-0.7-1.7V33c0-2.6,0.2-6.5,0.7-11.7c0.5-5.2,0.7-9,0.7-11.6c0.4-0.9,1-1.4,1.8-1.4
			s1.4,0.2,1.9,0.7c0.4,0.4,0.7,1,0.7,1.6v0.2c-0.6,1.1-0.9,5.5-0.9,13.1v2.6c0.1-0.1,0.9-1.9,2.6-5.3C72,13,74.5,8.8,75.5,8.8
			c0.7,0,1.3,0.2,1.9,0.5c0.6,0.3,0.9,0.8,0.9,1.4c0,0-0.6,1-1.7,2.9C73,19.4,71,22.8,70.5,23.8z"/>
	</g>
	<g>
		<path fill="#FFFFFF" d="M106.2,55.2c0-1.3,0.5-1.9,1.6-1.9c0.5,0,1.2,0.2,2.1,0.5c0.9,0.4,1.6,0.5,2.3,0.5c0.6,0,1.3-0.4,2.1-1.2
			c0.8-0.8,1.3-1.8,1.8-3.1c0.9-2.5,1.3-4.7,1.3-6.7c0-2-0.4-4.2-1.1-6.5c-0.7-2.3-1.6-4.5-2.6-6.5c-1-2-2-4-3.1-6
			c-2.4-4.8-3.6-9.2-3.6-13.1c0-3.7,1.2-6.7,3.6-8.8c1.3-1.1,2.8-1.7,4.5-1.7c0.9,0,1.7,0.2,2.5,0.7c0.8,0.5,1.4,1.1,1.7,1.9
			l-1.2,1.5c-1.2,0-2.1-0.2-2.8-0.7c-0.9,0.1-1.7,0.5-2.3,1.3c-1.2,1.4-1.8,3.1-1.8,5.1c0,2,0.3,4,0.8,5.9c0.5,1.9,1.2,3.6,1.9,5.2
			c0.8,1.5,1.6,3.2,2.5,5c0.9,1.8,1.8,3.5,2.5,5.1c1.8,3.8,2.7,7.9,2.7,12.3c0,3.1-0.8,6.1-2.4,8.9c-0.8,1.4-1.8,2.5-3.1,3.4
			c-1.3,0.9-2.8,1.3-4.4,1.3c-1.7,0-3.1-0.3-4.1-0.8C106.7,56.4,106.2,55.8,106.2,55.2z"/>
		<path fill="#FFFFFF" d="M132.3,54.9l-0.1-5.5c0,0,0-0.8,0.1-2.5c-0.2-0.6-0.6-6-1.1-16.2c-0.6-10.2-0.9-16.5-0.9-18.7
			c-0.1,0-0.2,0-0.3,0c-3.9-0.1-5.8-0.8-5.8-2.1c0-0.4,0.3-0.8,0.8-1.1c0.5-0.3,1-0.4,1.5-0.4l9.8,0.7l1.2,0c1.5,0,2.2,0.6,2.2,1.7
			c0,0.6-0.2,1.1-0.7,1.4s-1,0.5-1.7,0.5l-3.3-0.5l-0.1,0.7c0,4.5,0.4,11.4,1.2,20.4c0.8,9.1,1.2,15.9,1.2,20.5
			c0,0.6-0.3,1.1-0.8,1.5c-0.5,0.4-1.1,0.7-1.7,0.7L132.3,54.9z"/>
		<path fill="#FFFFFF" d="M158.8,41.5l0.8,4.4c0,0.6,0.2,2,0.7,4.3c0.5,2.3,0.7,3.8,0.7,4.5v0.1c0,1.1-0.4,1.7-1.2,2
			c-1,0-1.8-0.2-2.4-0.5c-0.6-0.3-0.8-1-0.8-1.9c0-2-0.4-5-1.1-8.9l-7.1-1.1c-0.4,1.6-0.8,3.3-1,5.2c-0.2,1.9-0.5,3.3-0.7,4.1
			c-0.4,1.8-1.2,2.7-2.4,2.7c-0.6,0-1.1-0.2-1.6-0.5c-0.5-0.4-0.7-0.8-0.7-1.4l0.2-0.6c3.2-12.5,5.6-24.7,7.2-36.5
			c0-0.3,0.1-1.3,0.2-2.9c0.2-3.5,0.7-5.8,1.3-6.7h2.4c0.7,0,1.2,0.2,1.7,0.5c0.5,0.3,0.7,0.8,0.7,1.4c0,3.7,0.5,9.1,1.5,16.3
			C158.3,33.1,158.8,38.3,158.8,41.5z M155.1,42.9c-0.1-0.7-0.2-1.9-0.2-3.7c0-1.7-0.1-3.9-0.3-6.5c-0.2-2.6-0.5-5.6-0.9-9
			c-0.4-3.4-0.6-5.9-0.8-7.5c-2.2,12.1-3.6,20.6-4.2,25.5C149.5,42.3,151.6,42.7,155.1,42.9z"/>
		<path fill="#FFFFFF" d="M168.3,32l-0.1,7.8c0,6.4,0.5,11.4,1.4,15l-0.8,1.9h-2l-0.9-1.1c0-2.2,0.1-4.6,0.1-7.3
			c0-2.7-0.2-8.4-0.6-17.2c-0.4-8.8-0.6-15.4-0.6-19.7c0-2.3,0.8-3.4,2.4-3.4c2.5,0,4.6,0.7,6.3,2c1.7,1.3,2.6,3.2,2.6,5.6v5.1
			c0,1.4-0.3,2.6-0.8,3.8c-0.5,1.1-1.1,2.3-1.8,3.6c-0.7,1.3-1.1,2-1.1,2.1c0.3,1.2,0.7,3.5,1.4,6.9c1.4,7.5,3,12.9,4.7,16.1
			c0.5,0.9,0.7,1.7,0.7,2.2c0,0.5-0.1,1-0.4,1.3c-0.3,0.4-0.7,0.5-1.2,0.5c-1,0-2-1.2-2.9-3.5c-0.9-2.3-1.7-4.9-2.2-7.7
			c-1.7-8.6-2.8-13.3-3.1-14.2H168.3z M168.6,10.8l-0.2,1c0,2,0,4.8,0.1,8.5c0.1,3.7,0.1,6.4,0.1,8.1c1.1-0.6,2-2.1,2.7-4.6
			c0.7-2.5,1-4.4,1-5.7s0-2.3-0.1-2.9c-0.1-0.6-0.2-1.3-0.5-2.1C171.3,11.6,170.2,10.8,168.6,10.8z"/>
		<path fill="#FFFFFF" d="M186.5,54.9l-0.1-5.5c0,0,0-0.8,0.1-2.5c-0.2-0.6-0.6-6-1.1-16.2c-0.6-10.2-0.9-16.5-0.9-18.7
			c-0.1,0-0.2,0-0.3,0c-3.9-0.1-5.8-0.8-5.8-2.1c0-0.4,0.3-0.8,0.8-1.1c0.5-0.3,1-0.4,1.5-0.4l9.8,0.7l1.2,0c1.5,0,2.2,0.6,2.2,1.7
			c0,0.6-0.2,1.1-0.7,1.4s-1,0.5-1.7,0.5l-3.3-0.5l-0.1,0.7c0,4.5,0.4,11.4,1.2,20.4c0.8,9.1,1.2,15.9,1.2,20.5
			c0,0.6-0.3,1.1-0.8,1.5c-0.5,0.4-1.1,0.7-1.7,0.7L186.5,54.9z"/>
	</g>
	<g>
		<path fill="#FFFFFF" d="M90.9,28.3l0,2.7l0.2,4.8l0.2,3.8c0,0.7-0.2,1-0.6,1c-0.2,0-0.4-0.1-0.5-0.3c-0.1-0.2-0.2-0.5-0.2-0.7
			l0.2-3.4c0-0.7,0-1.8-0.1-3.3c-0.1-1.5-0.1-2.5-0.1-3.3l0-1.8c0-1-0.1-1.7-0.2-2L88.5,26c-0.2,0-0.3-0.1-0.5-0.2
			c-0.1-0.1-0.2-0.2-0.2-0.4c0-0.2,0.2-0.3,0.5-0.4c0.3-0.1,0.8-0.2,1.2-0.3c0.8-0.1,1.5-0.1,2.1-0.1c0.2,0,0.3,0.1,0.5,0.2
			c0.1,0.1,0.2,0.3,0.2,0.4s-0.1,0.3-0.2,0.4c-0.1,0.1-0.3,0.1-0.5,0.1l-0.7,0c-0.1,0-0.2,0-0.2,0C90.8,26.6,90.9,27.4,90.9,28.3z"
			/>
		<path fill="#FFFFFF" d="M93.1,34.1l0-0.8c0-0.1,0-0.1,0-0.1v-0.4c0-2.2,0.1-3.8,0.4-4.7c0.2-0.8,0.4-1.3,0.6-1.5
			c0.2-0.2,0.4-0.3,0.6-0.3c1.6,0,2.7,0.8,3.4,2.5c0.4,0.9,0.5,2.1,0.5,3.5v0.2l0,2.4c0,4-0.9,6-2.8,6c-0.8,0-1.4-0.4-1.8-1.3
			c-0.4-0.8-0.6-1.6-0.7-2.4C93.2,36,93.1,35,93.1,34.1z M94.4,31.2l-0.1,1.9c0,2,0.2,3.8,0.5,5.3c0.3,0.9,0.7,1.4,1,1.6
			c0.3,0,0.5-0.1,0.7-0.3s0.4-0.5,0.5-0.8c0.1-0.3,0.2-0.7,0.3-1.1c0.1-0.4,0.1-0.8,0.2-1.2c0.1-0.7,0.1-1.4,0.1-1.9
			c0-0.5,0-1.3-0.1-2.4c-0.1-1.1-0.1-1.9-0.1-2.4v-0.4c0-0.5-0.2-1-0.5-1.4c-0.3-0.4-0.7-0.6-1.2-0.6c-0.5,0-0.8,0.3-1,0.8
			c-0.1,0.5-0.2,1-0.2,1.7L94.4,31.2z"/>
	</g>
</g>
</svg>
